<svg width="22" height="23" viewBox="0 0 22 23" fill="none" xmlns="http://www.w3.org/2000/svg">
<path d="M9.72178 1.63825C9.85928 1.63713 9.97392 1.65684 10.0525 1.68039C10.1253 2.03809 10.29 2.86307 10.4512 3.78551C10.6619 4.99063 10.8462 6.25117 10.8462 6.89415C10.8462 8.6408 9.75244 9.93068 7.91516 10.4817L7.15216 10.7105L7.20457 11.5053L7.88353 21.8025C7.88295 21.8031 7.88234 21.8036 7.88172 21.8041C7.84357 21.8373 7.75373 21.8855 7.61538 21.8855H4.23077C4.09407 21.8855 4.00337 21.8377 3.96433 21.804C3.96375 21.8035 3.96318 21.803 3.96263 21.8025L4.64158 11.5053L4.69403 10.7099L3.93036 10.4815C2.0901 9.93093 1 8.63802 1 6.89415C1 6.24898 1.18427 4.98833 1.3949 3.78396C1.55635 2.86085 1.72121 2.03579 1.79388 1.67903C1.87196 1.65545 1.98594 1.63563 2.12262 1.63663C2.22812 1.6374 2.31694 1.65032 2.38462 1.66675V7.48078V7.70205L2.47797 7.90267C2.62422 8.21697 2.87591 8.36419 2.9831 8.41906C3.11143 8.48475 3.23405 8.51897 3.31901 8.53814C3.49328 8.57747 3.67237 8.58914 3.82114 8.58832C3.96953 8.5875 4.14728 8.57392 4.31881 8.53326C4.40118 8.51373 4.52645 8.47782 4.6573 8.40744C4.75927 8.35258 5.04831 8.18025 5.17688 7.80462L5.21964 7.67971L5.22851 7.54798C5.26086 7.0676 5.34704 5.81862 5.43336 4.56777C5.5143 3.39468 5.59536 2.21995 5.63224 1.67598C5.70535 1.65649 5.80463 1.641 5.92242 1.641C6.0393 1.641 6.13759 1.65625 6.20995 1.67539L6.24956 2.24555C6.28391 2.74256 6.32951 3.40585 6.3771 4.09997C6.4723 5.4884 6.57538 6.99896 6.61236 7.54798L6.62123 7.67971L6.66398 7.80462C6.79326 8.18231 7.08481 8.35449 7.18578 8.40851C7.31655 8.47847 7.44172 8.51414 7.52397 8.53354C7.69539 8.57395 7.87319 8.5875 8.02173 8.58832C8.17035 8.58914 8.35002 8.57754 8.52475 8.53799C8.60963 8.51877 8.73407 8.48406 8.86423 8.41651C8.97228 8.36044 9.23308 8.20603 9.37508 7.87545L9.45625 7.68646V7.48078V1.66905C9.52489 1.65231 9.61495 1.63913 9.72178 1.63825ZM1.70251 1.71659C1.70247 1.71658 1.70317 1.71611 1.70472 1.7152C1.70332 1.71615 1.70254 1.7166 1.70251 1.71659ZM10.1426 1.71668C10.1441 1.71761 10.1449 1.71809 10.1448 1.7181C10.1448 1.71811 10.144 1.71765 10.1426 1.71668ZM18.2937 13.8103L18.3538 13.2016L17.8392 12.8709C15.9197 11.6374 15.0191 10.3386 14.6936 9.15925C14.3677 7.97812 14.5781 6.76991 15.1631 5.63936C15.7518 4.50142 16.7018 3.48442 17.7584 2.7545C18.8284 2.0153 19.9092 1.63666 20.7308 1.63666C20.8637 1.63666 20.9529 1.68153 20.9932 1.71474C20.9958 1.71686 20.998 1.71881 21 1.72058V21.8033C20.9983 21.8048 20.9964 21.8064 20.9943 21.8081C20.9552 21.8403 20.8661 21.8855 20.7308 21.8855H17.7692C17.6337 21.8855 17.5444 21.8387 17.5052 21.8057L18.2937 13.8103ZM21.0123 1.73342C21.0123 1.73343 21.012 1.73305 21.0115 1.73228L21.0123 1.73342Z" stroke="#FE9191" stroke-width="2"/>
</svg>
