<svg width="20" height="20"  viewBox="0 0 22 23" fill="none" xmlns="http://www.w3.org/2000/svg">
<path d="M8.05878 10.9606L7.67728 11.075L7.70349 11.4724L8.38558 21.8171C8.38559 21.8173 8.3856 21.8175 8.38561 21.8177C8.39846 22.0319 8.15933 22.3855 7.61538 22.3855H4.23077C3.68951 22.3855 3.44782 22.0341 3.46054 21.8177C3.46056 21.8174 3.46057 21.8172 3.46059 21.8169L4.14267 11.4724L4.16889 11.0747L3.78705 10.9605C1.7775 10.3593 0.5 8.90025 0.5 6.89415C0.5 6.19785 0.693276 4.89344 0.90238 3.69782C1.10655 2.53039 1.31601 1.51942 1.34037 1.40185L1.34105 1.39859L1.3411 1.3986L1.34249 1.39137C1.34309 1.38822 1.35571 1.32601 1.51237 1.25222C1.66432 1.18065 1.88518 1.13488 2.12628 1.13665C2.36792 1.13841 2.5832 1.18753 2.72753 1.2611C2.83874 1.31779 2.8733 1.3679 2.88462 1.39736V7.48078V7.59142L2.93129 7.69173C3.00871 7.85811 3.14402 7.93973 3.21093 7.97398C3.28841 8.01364 3.36689 8.03637 3.42907 8.0504C3.55563 8.07896 3.69475 8.08901 3.81838 8.08833C3.94183 8.08765 4.07962 8.0761 4.20348 8.04674C4.26371 8.03246 4.34269 8.00892 4.42043 7.9671C4.48374 7.93305 4.63656 7.83921 4.70383 7.6427L4.7252 7.58025L4.72964 7.51438C4.76287 7.02093 4.85165 5.7344 4.93942 4.46264C5.03561 3.06875 5.13058 1.69261 5.14984 1.39787C5.16159 1.37064 5.19862 1.31823 5.31806 1.26017C5.46685 1.18785 5.68356 1.141 5.92242 1.141C6.16134 1.141 6.37746 1.18787 6.52528 1.25993C6.64639 1.31896 6.68121 1.3717 6.69154 1.39751L6.69398 1.43111L6.70642 1.60721L6.74837 2.21107C6.78273 2.70822 6.82834 3.37161 6.87593 4.06576C6.97112 5.45417 7.07423 6.96502 7.11123 7.51438L7.11566 7.58025L7.13704 7.6427C7.20465 7.84024 7.35878 7.934 7.42165 7.96764C7.49942 8.00925 7.57844 8.03267 7.63872 8.04688C7.76273 8.07612 7.90079 8.08765 8.02448 8.08833C8.1482 8.08901 8.2877 8.079 8.41435 8.05033C8.47644 8.03627 8.55571 8.0133 8.63393 7.97271C8.70108 7.93786 8.8407 7.85264 8.91566 7.67812L8.95625 7.58362V7.48078V1.39805C8.96755 1.3695 9.00218 1.3198 9.11346 1.26329C9.2587 1.18955 9.47509 1.14026 9.71768 1.13827C9.95976 1.13629 10.1814 1.18182 10.3339 1.25325C10.4911 1.32694 10.5032 1.38898 10.5037 1.39137L10.9947 1.29717L10.5051 1.39859L10.5054 1.40016C10.528 1.50929 10.7386 2.52561 10.9438 3.69941C11.1529 4.89567 11.3462 6.20003 11.3462 6.89415C11.3462 8.90382 10.0642 10.3592 8.05878 10.9606ZM17.7961 13.7613L17.8262 13.4569L17.5689 13.2916C15.5746 12.0099 14.5779 10.6195 14.2117 9.29225C13.8452 7.96411 14.0897 6.62589 14.719 5.40961C15.3501 4.18963 16.3595 3.11323 17.4742 2.34312C18.5956 1.56838 19.7746 1.13666 20.7308 1.13666C21.2529 1.13666 21.5 1.46828 21.5 1.67957V21.8426C21.5 22.057 21.2543 22.3855 20.7308 22.3855H17.7692C17.2119 22.3855 16.9806 22.0185 17.0026 21.8076L17.0029 21.8047L17.7961 13.7613Z" stroke="#FF7C7C" />
</svg>
