<svg width="20" height="20" viewBox="0 0 30 42" fill="none" xmlns="http://www.w3.org/2000/svg">
<path d="M11.677 41.2724C9.8093 41.2724 8.01942 41.2724 6.15171 41.2724C5.76261 41.2724 5.29568 41.0389 5.14004 40.7276C3.5058 38.0039 1.71592 35.2802 0.315138 32.4008C-0.151788 31.3891 -0.0739682 29.677 0.470779 28.5876C1.56027 26.1751 3.11669 23.9183 4.36183 21.5837C4.51747 21.2724 4.51747 20.6498 4.36183 20.3385C3.03887 18.0039 1.63809 15.6693 0.315138 13.3346C0.0816747 12.8677 0.159496 12.2451 0.0816753 11.7004C-0.0739667 10.5331 0.237316 9.52141 0.859884 8.43191C2.33848 6.09728 3.66144 3.68483 4.9844 1.3502C5.29568 0.805454 5.60697 0.571991 6.22953 0.571991C9.8093 0.571991 13.3891 0.571991 16.9688 0.649812C17.3579 0.649812 17.9805 0.961097 18.1361 1.27238C21.8716 7.6537 25.5291 14.035 29.1867 20.4163C29.3424 20.6498 29.3424 21.1946 29.1867 21.428C25.5291 27.8872 21.7937 34.2685 18.0583 40.6498C17.9027 40.9611 17.3579 41.1946 16.9688 41.2724C15.2568 41.2724 13.4669 41.2724 11.677 41.2724ZM20.8599 31.7004C20.3151 31.7004 19.926 31.6226 19.6147 31.6226C16.9688 31.6226 14.4007 31.6226 11.7548 31.6226C11.2101 31.6226 10.821 31.4669 10.5875 30.9222C9.8093 29.4436 8.95327 28.0428 8.09724 26.642C7.47467 25.5525 6.8521 24.463 6.07389 23.2179C5.91825 23.5292 5.84043 23.6848 5.76261 23.7626C4.51747 25.8638 3.27234 28.0428 2.10502 30.144C1.94938 30.3774 2.0272 30.9222 2.26066 31.2335C3.58362 33.6459 4.9844 36.0584 6.463 38.393C6.61864 38.7043 7.16339 39.0156 7.55249 39.0156C9.8093 39.0934 12.0661 38.9377 14.2451 39.0934C16.035 39.249 17.0467 38.7043 17.747 37.07C18.6031 35.2802 19.6926 33.6459 20.8599 31.7004ZM20.7821 10.144C19.3813 7.73152 18.0583 5.47471 16.7354 3.29573C16.5797 3.06226 16.035 2.90662 15.7237 2.90662C13 2.90662 10.2762 2.90662 7.63031 2.90662C7.00774 2.90662 6.61864 3.06226 6.38518 3.60701C5.06222 6.01946 3.58362 8.43191 2.26066 10.8444C2.10502 11.1556 2.10502 11.7782 2.33848 12.0895C3.27234 13.8016 4.28401 15.5136 5.21786 17.2257C5.52915 17.6926 5.76261 18.1595 6.07389 18.7043C6.22953 18.4708 6.38518 18.3152 6.463 18.1595C7.78595 15.8249 9.18673 13.5681 10.4319 11.1556C10.821 10.5331 11.2101 10.2996 11.9105 10.2996C14.4786 10.3774 17.0467 10.2996 19.5369 10.2996C19.926 10.2218 20.2373 10.2218 20.7821 10.144ZM8.01942 19.7938C10.8988 19.7938 13.4669 19.7938 16.1128 19.7938C16.4241 19.7938 16.8132 19.4825 16.9688 19.1712C18.1361 17.2257 19.3035 15.2023 20.4708 13.179C20.5486 12.9455 20.6264 12.7899 20.7821 12.4008C20.3151 12.4008 20.0039 12.323 19.6926 12.323C17.9805 12.323 16.2684 12.4786 14.5564 12.323C12.9221 12.1673 11.9883 12.7121 11.2879 14.1907C10.2762 16.0584 9.18673 17.7704 8.01942 19.7938ZM20.6264 29.3658C20.6264 29.2101 20.6264 29.0545 20.5486 28.9767C19.3035 26.7977 18.0583 24.6187 16.8132 22.5175C16.6575 22.2841 16.1906 22.0506 15.8015 22.0506C13.856 21.9728 11.9105 22.0506 10.0428 22.0506C9.49802 22.0506 8.87545 22.0506 8.25288 22.0506C8.3307 22.3619 8.3307 22.5175 8.40852 22.6732C9.57584 24.7743 10.821 26.8755 12.0661 28.9767C12.2218 29.2879 12.7665 29.4436 13.1556 29.4436C15.4124 29.5214 17.6692 29.4436 19.8482 29.4436C20.0817 29.4436 20.3151 29.3658 20.6264 29.3658ZM22.7276 13.5681C21.3268 16.0584 20.0039 18.2374 18.7587 20.4942C18.6031 20.7276 18.7587 21.2724 18.9144 21.5837C20.0039 23.5292 21.0933 25.4747 22.2607 27.4202C22.4163 27.6537 22.5719 27.8093 22.8054 28.1984C24.2062 25.786 25.5291 23.5292 26.7743 21.2724C26.9299 21.0389 26.7743 20.572 26.6186 20.3385C26.0739 19.3269 25.5291 18.393 24.9844 17.4591C24.284 16.214 23.5836 14.9689 22.7276 13.5681Z" fill="white" stroke="white"/>
</svg>
